<?xml version="1.0" encoding="UTF-8" standalone="no"?>
<svg
   width="327"
   height="120"
   viewBox="0 0 327 120"
   version="1.1"
   id="svg1"
   sodipodi:docname="Group@1,5x.svg"
   inkscape:export-filename="Group@1,5x.svg"
   inkscape:export-xdpi="96"
   inkscape:export-ydpi="96"
   xmlns:inkscape="http://www.inkscape.org/namespaces/inkscape"
   xmlns:sodipodi="http://sodipodi.sourceforge.net/DTD/sodipodi-0.dtd"
   xmlns="http://www.w3.org/2000/svg"
   xmlns:svg="http://www.w3.org/2000/svg">
  <defs
     id="defs1">
    <linearGradient
       id="swatch1"
       inkscape:swatch="solid">
      <stop
         style="stop-color:#ff2020;stop-opacity:0;"
         offset="0"
         id="stop1" />
    </linearGradient>
  </defs>
  <sodipodi:namedview
     id="namedview1"
     pagecolor="#ffffff"
     bordercolor="#000000"
     borderopacity="0.25"
     inkscape:showpageshadow="2"
     inkscape:pageopacity="0.0"
     inkscape:pagecheckerboard="0"
     inkscape:deskcolor="#d1d1d1"
     inkscape:export-bgcolor="#ffffff00"
     inkscape:zoom="1.6055046"
     inkscape:cx="163.5"
     inkscape:cy="60.105714"
     inkscape:window-width="1366"
     inkscape:window-height="705"
     inkscape:window-x="-8"
     inkscape:window-y="-8"
     inkscape:window-maximized="1"
     inkscape:current-layer="Guide" />
  <title
     id="title1">Group@1,5x</title>
  <g
     id="Guide"
     transform="translate(-65,-161)"
     style="fill:none;fill-rule:evenodd;stroke:none;stroke-width:1">
    <path
       style="fill:#ff1510;fill-opacity:1"
       d="m 249.30693,222.44578 v -33.9759 h 5.42079 5.42079 v 27.10843 27.10844 h 5.05941 5.05941 v 6.86747 6.86747 h -10.4802 -10.4802 z M 80.178218,222.08434 v -33.61446 h 7.51178 c 5.345318,0 7.61034,0.26061 7.853515,0.90361 0.187954,0.49699 1.428258,6.67771 2.756231,13.73494 1.327974,7.05723 2.608536,12.83133 2.845696,12.83133 0.23717,0 1.48989,-4.96084 2.78384,-11.0241 1.29394,-6.06325 2.67153,-12.24397 3.06131,-13.73494 l 0.70869,-2.71084 h 7.19987 7.19986 v 30.12048 c 0,16.56627 0.17448,29.94597 0.38774,29.73268 0.21326,-0.2133 1.18767,-5.39101 2.16537,-11.50603 4.61402,-28.85861 7.5657,-47.56003 7.5657,-47.93517 0,-0.22658 3.37226,-0.41196 7.49391,-0.41196 h 7.49392 l 1.85936,11.74699 c 1.02265,6.46084 3.06997,19.71686 4.5496,29.45783 1.47963,9.74096 2.96249,18.01988 3.29524,18.39759 0.33275,0.37771 0.605,-12.90175 0.605,-29.50991 v -30.19666 l 10.66089,0.2328 c 12.39264,0.27062 13.79084,0.8548 17.5834,7.34641 l 2.17902,3.72977 -0.44132,-3.61446 c -0.24273,-1.98795 -0.60887,-4.50904 -0.81364,-5.60241 l -0.37231,-1.98795 h 6.0238 6.0238 l 2.79877,17.37798 c 1.53933,9.55789 2.93431,17.24243 3.09996,17.07676 0.27374,-0.27379 6.01988,-32.64378 6.01997,-33.91257 2e-5,-0.29819 7.64335,-0.54217 16.98519,-0.54217 h 16.98514 v 6.14458 6.14458 h -5.0594 -5.05941 v 7.22891 7.22892 h 5.05941 5.0594 v 6.83444 6.83444 l -4.87871,0.21375 -4.87871,0.21375 v 6.50603 6.50602 l 4.87871,0.21375 4.87871,0.21375 v 6.473 6.473 H 233.41338 222.57924 L 222.3911,223.3494 222.20297,191 l -2.41314,13.73494 c -1.32723,7.55422 -3.84665,21.86747 -5.59871,31.80723 -1.75207,9.93976 -3.18682,18.31626 -3.18835,18.61446 -0.002,0.29819 -3.09262,0.54217 -6.86911,0.54217 -3.77648,0 -6.86633,-0.17874 -6.86633,-0.39718 0,-1.04037 -6.64544,-40.5831 -6.97951,-41.53054 -0.21028,-0.59638 -0.9235,1.03012 -1.58492,3.61446 -1.03981,4.06276 -3.04695,8.19548 -5.97841,12.3096 -0.60403,0.84771 0.15544,3.84912 3.26396,12.89912 2.22813,6.48689 4.05115,12.08914 4.05115,12.44944 0,0.3603 -2.56093,0.6551 -5.69096,0.6551 h -5.69097 l -3.83457,-10.51932 c -2.10901,-5.78562 -4.10154,-10.68433 -4.42784,-10.88603 -0.32631,-0.2017 -0.59328,4.53199 -0.59328,10.51931 v 10.88604 h -11.82305 -11.82305 l -0.64556,-3.07229 -0.64557,-3.07229 -4.7754,-0.21142 -4.77539,-0.21141 -0.91923,3.2837 -0.91923,3.28371 h -11.45295 -11.45294 l -0.19817,-12.10844 -0.19817,-12.10843 -2.90057,11.92771 -2.90056,11.92771 -3.00136,0.21931 c -2.392366,0.17481 -3.073319,-0.0452 -3.356029,-1.08434 -0.195071,-0.717 -1.442178,-6.18316 -2.771347,-12.14702 l -2.416671,-10.84337 -0.198169,12.10843 -0.198169,12.10844 h -6.126089 -6.126088 z m 63.113932,14.27711 c 0.36963,-0.63008 -2.73977,-19.55564 -3.30596,-20.12192 -0.34298,-0.34304 -0.97068,3.42225 -2.63146,15.78502 -0.30714,2.28639 -0.39603,4.31952 -0.19751,4.51807 0.57256,0.57266 5.78297,0.41879 6.13493,-0.18117 z m 31.12691,-17.43491 c 1.83386,-1.58517 3.33696,-5.30244 3.31754,-8.20453 -0.0209,-3.12453 -2.29159,-8.02635 -4.40337,-9.50574 -3.36838,-2.3597 -3.53125,-1.92842 -3.53125,9.35052 v 10.53064 l 1.62624,-0.49567 c 0.89443,-0.27261 2.24031,-1.02646 2.99084,-1.67522 z"
       id="path1" />
    <text
       id="Search-heros"
       font-family="WorkSans-SemiBold, 'Work Sans'"
       font-size="16.672px"
       font-weight="500"
       fill="#404040"
       x="65"
       y="161"><tspan
         x="284"
         y="237"
         id="tspan1">Search heros</tspan></text>
  </g>
</svg>
